<svg xmlns="http://www.w3.org/2000/svg" viewBox="0 0 597.17 268.73"><defs><style>.cls-1{fill:#333;}.cls-2{fill:#e30c34;}.cls-3{fill:#fff;}</style></defs><g id="图层_2" data-name="图层 2"><g id="图层_1-2" data-name="图层 1"><rect class="cls-1" width="597.17" height="268.73"/><polygon class="cls-2" points="60.4 87.82 60.4 180.91 141.02 227.45 221.63 180.91 221.63 87.82 141.02 41.27 60.4 87.82"/><polygon class="cls-3" points="140.97 72.35 87.43 103.26 87.43 134.17 114.21 118.71 114.21 180.94 140.97 196.38 140.97 196.38 140.97 103.25 167.74 87.8 140.97 72.35"/><polygon class="cls-3" points="167.89 118.87 167.89 180.91 194.76 165.39 194.76 103.33 167.89 118.87"/><path class="cls-3" d="M295.75,180.72h-19.1V103.8H248.51V87.88h74.37V103.8H295.75Z"/><path class="cls-3" d="M349.23,103.8H331.41V87.88h17.82Zm0,76.92H331.41V112h17.82Z"/><path class="cls-3" d="M368.84,87.88h36.3c14.26,0,23.05,3.18,29.29,10.7,7.38,8.78,11.33,21.39,11.33,35.65s-3.95,27-11.33,35.66c-6.24,7.51-15.16,10.83-29.29,10.83h-36.3Zm36.3,76.92c14.39,0,21.52-10.06,21.52-30.44s-7.13-30.56-21.52-30.56H388v61Z"/><path class="cls-3" d="M504.17,180.72H462.4V87.88h41.38c24.46,0,30.31,15.92,30.31,24.45,0,7.9-3.56,13.24-12.73,19.1,10.44,6.12,15.41,13.37,15.41,22.54C536.77,165.05,530.27,180.72,504.17,180.72ZM481.5,124.81h20.76c8.78,0,13.5-3.69,13.5-10.44S511,103.8,502.26,103.8H481.5Zm0,40h22.79c9.3,0,14.14-4.21,14.14-12s-4.84-12.1-14.14-12.1H481.5Z"/></g></g></svg>